<svg width="1415" height="177" viewBox="0 0 1415 177" fill="none" xmlns="http://www.w3.org/2000/svg">
<g clip-path="url(#clip0_4_336)">
<path d="M458.456 128.914L403.127 0.155273H347.518L287.899 126.056L338.783 173.676H338.908V125.963H411.644V174.888L458.456 128.914Z" fill="#0D0707"/>
<path d="M44.0458 0.155273L0 88.1893C4.91125 100.739 15.2311 122.328 36.0884 142.706C43.5485 150.006 51.133 155.939 58.3444 160.754C73.762 171.036 91.9772 176.285 110.503 176.285C128.718 176.285 146.623 171.222 161.854 161.282C169.5 156.281 177.582 150.006 185.54 142.116C205.962 121.831 215.753 100.397 220.291 88.2204C205.589 58.8343 190.917 29.5103 176.214 0.155273H132.169V88.2204L88.1228 0.155273H44.0769H44.0458Z" fill="#0D0707"/>
<path d="M261.664 65.513C257.965 53.4604 259.239 38.9848 272.419 38.9848C278.853 38.9848 292.779 43.52 284.946 70.4521C284.946 70.4521 319.356 34.2631 307.046 14.1961C302.664 7.05145 295.639 0.248535 274.315 0.248535H205.06L225.576 61.7543L242.765 113.258C248.578 129.442 249.386 139.662 242.579 143.545C234.403 148.204 222.467 138.512 219.545 121.49C219.545 121.49 201.983 176.379 259.923 176.379H298.716L261.726 65.513H261.664Z" fill="#0D0707"/>
<path d="M646.047 0.963013H602.001L571.757 91.6064C563.52 119.533 567.778 135.251 574.244 144.663C585.403 160.909 613.689 173.148 613.689 173.148C608.871 162.245 591.93 149.882 593.422 130.622C595.07 109.685 603.866 96.2659 614.155 76.5716C623.325 59.0829 635.137 33.8593 646.016 0.963013H646.047Z" fill="#0D0707"/>
<path d="M733.642 0.155315C723.943 -0.372765 698.361 -0.403829 673.37 16.0598C659.227 25.3789 650.461 36.5928 645.519 44.1723C633.147 63.1211 632.277 81.7281 632.059 87.1953C631.842 92.5072 631.096 123.757 654.564 149.322C685.151 182.685 729.756 176.845 733.642 176.254V88.1894H689.596L733.642 44.1723H689.596L733.642 0.155315Z" fill="#0D0707"/>
<path d="M1226.76 176.845C1217.06 177.373 1191.48 177.404 1166.48 160.94C1152.34 151.621 1143.58 140.407 1138.63 132.828C1126.26 113.879 1125.39 95.2718 1125.17 89.8046C1124.96 84.4928 1124.21 53.2429 1147.68 27.6776C1178.27 -5.68464 1222.9 0.186363 1226.76 0.745506V88.8106H1182.71L1226.76 132.828H1182.71L1226.76 176.845Z" fill="#0D0707"/>
<path d="M537.316 62.4377V0.155273H449.846L472.817 176.254H557.458V62.4377H522.271H537.316Z" fill="#0D0707"/>
<path d="M837.866 0.434872H738.988L748.313 37.649L783.065 176.534H827.111V88.4689C859.593 81.2622 875.042 59.0518 875.384 37.649C875.384 37.4937 875.384 37.3694 875.384 37.2141C875.508 16.7743 858.319 0.403809 837.897 0.403809L837.866 0.434872Z" fill="#0D0707"/>
<path d="M1091.85 0.434872H992.974L1002.3 37.649L1037.05 176.534H1081.1V88.4689C1113.58 81.2622 1129.03 59.0518 1129.37 37.649C1129.37 37.4937 1129.37 37.3694 1129.37 37.2141C1129.49 16.7743 1112.31 0.403809 1091.88 0.403809L1091.85 0.434872Z" fill="#0D0707"/>
<path d="M1234.56 0.434872L1278.6 176.534H1322.65V88.4689L1366.7 176.534H1410.74L1366.7 88.4689C1399.18 81.2622 1414.63 59.0518 1414.97 37.649C1414.97 37.4937 1414.97 37.3694 1414.97 37.2141C1415.09 16.7743 1397.9 0.403809 1377.48 0.403809H1278.6" fill="#0D0707"/>
<path d="M1014.76 129.815L959.466 1.02515H903.826L844.238 126.957L895.122 174.546H895.247V126.832H967.983V175.758L1014.76 129.815Z" fill="#0D0707"/>
</g>
<defs>
<clipPath id="clip0_4_336">
<rect width="1415" height="177" fill="white"/>
</clipPath>
</defs>
</svg>
