<svg width="1398" height="695" viewBox="0 0 1398 695" fill="none" xmlns="http://www.w3.org/2000/svg">
<g clip-path="url(#clip0_4_239)">
<path d="M879.505 247.766L773.36 0.298462H666.68L552.307 242.274L649.923 333.798H650.162V242.095H789.699V336.127L879.505 247.766Z" fill="#0D0707"/>
<path d="M84.4978 0.298462L0 169.496C9.42177 193.616 29.2194 235.109 69.2321 274.274C83.5437 288.305 98.0938 299.708 111.928 308.962C141.505 328.723 176.449 338.813 211.99 338.813C246.934 338.813 281.282 329.082 310.501 309.977C325.17 300.365 340.674 288.305 355.94 273.14C395.118 234.154 413.902 192.959 422.608 169.556C394.402 113.077 366.256 56.7176 338.051 0.298462H253.553V169.556L169.055 0.298462H84.5574H84.4978Z" fill="#0D0707"/>
<path d="M501.978 125.913C494.881 102.749 497.326 74.927 522.61 74.927C534.954 74.927 561.669 83.6436 546.642 135.406C546.642 135.406 612.654 65.8522 589.039 27.2842C580.631 13.5526 567.155 0.477661 526.248 0.477661H393.389L432.745 118.689L465.722 217.676C476.873 248.781 478.423 268.424 465.364 275.887C449.681 284.842 426.782 266.215 421.177 233.498C421.177 233.498 387.485 338.992 498.638 338.992H573.058L502.097 125.913H501.978Z" fill="#0D0707"/>
<path d="M1239.38 0.298462H1154.88L1096.86 174.511C1081.06 228.184 1089.23 258.394 1101.63 276.484C1123.04 307.708 1177.3 331.231 1177.3 331.231C1168.06 310.275 1135.56 286.514 1138.42 249.498C1141.58 209.258 1158.46 183.467 1178.2 145.615C1195.79 112.002 1218.45 63.5237 1239.32 0.298462H1239.38Z" fill="#0D0707"/>
<path d="M1398 0.298543C1379.39 -0.716404 1330.32 -0.776108 1282.37 30.8664C1255.24 48.7772 1238.43 70.3299 1228.94 84.8974C1205.21 121.316 1203.54 157.078 1203.12 167.586C1202.71 177.795 1201.28 237.856 1246.3 286.991C1304.97 351.112 1390.55 339.888 1398 338.754V169.496H1313.5L1398 84.8974H1313.5L1398 0.298543Z" fill="#0D0707"/>
<path d="M1005.09 694.761C986.483 695.776 937.407 695.836 889.463 664.193C862.331 646.283 845.515 624.73 836.033 610.162C812.3 573.744 810.63 537.982 810.213 527.474C809.795 517.265 808.364 457.204 853.386 408.068C912.063 343.948 997.634 355.172 1005.09 356.306V525.563H920.591L1005.09 610.162H920.591L1005.09 694.761Z" fill="#0D0707"/>
<path d="M1030.79 120.003V0.298462H862.986L907.054 338.753H1069.43V120.003H1001.93H1030.79Z" fill="#0D0707"/>
<path d="M259.039 355.709H69.292L87.1814 427.233L153.849 694.164H238.347V524.907C300.662 511.056 330.299 468.368 330.955 427.233C330.955 426.935 330.955 426.696 330.955 426.397C331.193 387.113 298.217 355.649 259.039 355.649V355.709Z" fill="#0D0707"/>
<path d="M746.288 355.709H556.6L574.49 427.233L641.158 694.164H725.655V524.907C787.97 511.056 817.607 468.368 818.263 427.233C818.263 426.935 818.263 426.696 818.263 426.397C818.501 387.113 785.525 355.649 746.347 355.649L746.288 355.709Z" fill="#0D0707"/>
<path d="M1020.06 355.709L1104.55 694.164H1189.05V524.907L1273.55 694.164H1358.05L1273.55 524.907C1335.86 511.056 1365.5 468.368 1366.16 427.233C1366.16 426.935 1366.16 426.696 1366.16 426.397C1366.4 387.113 1333.42 355.649 1294.24 355.649H1104.55" fill="#0D0707"/>
<path d="M598.402 604.312L492.317 356.784H385.637L271.264 598.819L368.88 690.284L369.119 690.343V598.64H508.657V692.672L598.402 604.312Z" fill="#0D0707"/>
</g>
<defs>
<clipPath id="clip0_4_239">
<rect width="1398" height="695" fill="white"/>
</clipPath>
</defs>
</svg>
